# xmcd
#
# Track frame offsets: 
#        150
#        19743
#        34060
#        51153
#        66763
#        80890
#        95759
#        111573
#        125422
#        145332
#
# Disc length: 2149 seconds
#
# Revision: 0
# Processed by: cddbd v1.5.2PL0 Copyright (c) Steve Scherf et al.
# Submitted via: ExactAudioCopy v0.99pb5
#
DISCID=9308630a
DTITLE=Haven Quint - Haven Quint
DYEAR=2005
DGENRE=Country
TTITLE0=Keep On Rollin' To Memphis
TTITLE1=I Can't Make Her Love Me
TTITLE2=Nascar Superstar
TTITLE3=Have It All
TTITLE4=I Don't Know What To Say
TTITLE5=Standing In The Rain
TTITLE6=Without You
TTITLE7=You're The One
TTITLE8=Song For You
TTITLE9=The Long Road
EXTD=
EXTT0=
EXTT1=
EXTT2=
EXTT3=
EXTT4=
EXTT5=
EXTT6=
EXTT7=
EXTT8=
EXTT9=
PLAYORDER=
